<?xml version="1.0" encoding="utf-8"?>
<!-- Generator: Adobe Illustrator 17.1.0, SVG Export Plug-In . SVG Version: 6.00 Build 0)  -->
<!DOCTYPE svg PUBLIC "-//W3C//DTD SVG 1.1//EN" "http://www.w3.org/Graphics/SVG/1.1/DTD/svg11.dtd">
<svg version="1.1" id="Layer_1" xmlns="http://www.w3.org/2000/svg" xmlns:xlink="http://www.w3.org/1999/xlink" x="0px" y="0px"
	 viewBox="494 511 650 93" enable-background="new 494 511 650 93" xml:space="preserve">
<g>
	<path fill="#F9F9FA" d="M1084.2,541.3c-1.7,0-3.4,0.1-5,0.3c-14-14.1-33.4-22.9-54.8-22.9c-31.1,0-57.9,18.4-70.1,44.9
		c-15.8,1.3-29.5,9.7-38.1,22c-8-9.6-20-15.7-33.5-15.7c-14.6,0-27.5,7.2-35.4,18.2c-10.3-5.9-22.2-9.3-35-9.3
		c-20.2,0-38.4,8.5-51.3,22.1c-5-2.2-10.6-3.4-16.4-3.4c-1.5,0-3,0.1-4.5,0.2c-9.2-16-26.3-26.8-46-27.1
		c-7.4-33.8-37.5-59.1-73.5-59.1c-18,0-34.5,6.3-47.5,16.9c-3.9-0.9-8-1.4-12.1-1.4c-23.3,0-43.2,14.7-51,35.3
		c-5-1.6-10.4-2.5-16-2.5V604h650v-44.2c-7.9,0-15.4,1.8-22.2,5C1115,550.8,1100.7,541.3,1084.2,541.3z"/>
</g>
</svg>
